# xmcd
#
# Track frame offsets: 
#        150
#        16890
#        28282
#        43681
#        60495
#        72057
#        84254
#        97775
#        112891
#        126530
#        141810
#        155487
#
# Disc length: 2221 seconds
#
# Revision: 0
# Processed by: cddbd v1.5.2PL0 Copyright (c) Steve Scherf et al.
# Submitted via: ExactAudioCopy v0.99pb4
#
DISCID=9508ab0c
DTITLE=Jim and Jesse - A Gift for Keith
DYEAR=1900
DGENRE=Bluegrass
TTITLE0=Fallen Leaves
TTITLE1=Day Dreaming in the NIght
TTITLE2=As You Are, I Once Was
TTITLE3=Blue Ridge Mountain Sunset 
TTITLE4=Memories and Tears 
TTITLE5=Shenandoah Waltz
TTITLE6=I Washed My Face in the Morning Dew
TTITLE7=I've Got Plenty of Everything But You
TTITLE8=Puppy Love
TTITLE9=On the Banks of the Ohio
TTITLE10=The Light at the River
TTITLE11=When the Wagon was New
EXTD=
EXTT0=
EXTT1=
EXTT2=
EXTT3=
EXTT4=
EXTT5=
EXTT6=
EXTT7=
EXTT8=
EXTT9=
EXTT10=
EXTT11=
PLAYORDER=
